<?xml version="1.0" encoding="UTF-8"?>
<svg id="Layer_1" data-name="Layer 1" xmlns="http://www.w3.org/2000/svg" viewBox="0 0 2852.79 1306.3">
  <defs>
    <style>
      .cls-1 {
        fill: #1a3b60;
      }
    </style>
  </defs>
  <g>
    <path class="cls-1" d="M333.35,646.94c-14.12-14.16-39.94-44.35-82.69-58.16v178.32c32-30.72,59.76-74.23,82.69-120.17Z"/>
    <path class="cls-1" d="M826.61,811.94c-13.98,10.67-31.44,16.98-50.34,16.98-16.63,0-32.05-4.88-45.11-13.37-11.28,8.62-25.13,13.37-39.93,13.37-37.28,0-67.67-30.35-67.67-67.67v-50.43c0-18.59-15.16-33.75-33.75-33.75s-33.75,15.15-33.75,33.75v114.92h-49.56v-169.09c-7.88,4.96-15.68,9.19-23.39,12.72v156.38h-49.51v-143.18c-19.55,1.44-38.84-1.79-57.79-9.71-31.35,61.94-72.86,122.67-125.15,157.68v83.72h663.59v-88.57l-57.37-.02c-12.06,0-22.86-5.31-30.27-13.72Z"/>
    <path class="cls-1" d="M578.74,467.66c-5.88.22-22.69,10.36-22.69,52.78v26.87c37.45-43.59,35.53-79.65,22.69-79.65Z"/>
    <path class="cls-1" d="M400.11,467.66h83v145.32c7.45-4.83,15.24-10.58,23.39-17.29v-75.25c0-80.87,47.29-102.25,72.24-102.25,23.12,0,43.2,13.76,52.43,35.93,7.88,19.07,18.03,71.5-57.61,147.19-6.01,5.97-11.8,11.58-17.51,16.81v16.68c10.28-4.62,21.69-7.19,33.75-7.19,45.85,0,83.17,37.32,83.17,83.22v50.43c.26,15.63,16.68,21.73,26.34,16.16-4.09-9.75-6.27-20.47-6.27-31.7v-34.88c0-45.9,37.32-83.22,83.22-83.22,14.68,0,28.48,3.79,40.46,10.54v-10.8h45.59v129.16c0,15.09,10.2,19.73,16.63,19.73h35.3V250.66H250.66v287.66c36.52,9.3,72.53,29.47,104.25,61.76,21.08-49.6,36.32-97.94,45.2-132.43Z"/>
    <path class="cls-1" d="M433.6,632.92v-103.64c-8.84,27.83-21.07,62.49-36.84,98.81,14.59,5.7,26.91,6.14,36.84,4.83Z"/>
    <path class="cls-1" d="M776.27,677.07c-18.64,0-33.79,15.15-33.79,33.75v34.88c0,18.59,15.15,33.75,33.79,33.75s33.75-15.16,33.75-33.75v-34.88c0-18.59-15.11-33.75-33.75-33.75Z"/>
    <polygon class="cls-1" points="343.76 1055.64 914.25 1055.64 914.25 936.29 250.66 936.29 343.76 1055.64"/>
  </g>
  <g>
    <path class="cls-1" d="M1134.42,588.78v-196.43h-69.46v-36.23h178.81v36.23h-69.46v196.43h-39.88Z"/>
    <path class="cls-1" d="M1275.01,588.78v-232.66h40.22v97.71h91.73v-97.71h40.22v232.66h-40.22v-98.38h-91.73v98.38h-40.22Z"/>
    <path class="cls-1" d="M1493.04,588.78v-232.66h148.24v36.23h-108.02v61.15h98.71v36.23h-98.71v62.82h109.68v36.23h-149.9Z"/>
    <path class="cls-1" d="M1742.31,588.78l63.81-232.66h69.46l63.81,232.66h-41.21l-13.96-53.18h-86.75l-13.96,53.18h-41.21ZM1806.79,499.04h68.13l-31.24-117.99h-5.65l-31.24,117.99Z"/>
    <path class="cls-1" d="M1968.98,588.78v-232.66h40.22v97.71h91.73v-97.71h40.22v232.66h-40.22v-98.38h-91.73v98.38h-40.22Z"/>
    <path class="cls-1" d="M2170.73,588.78l63.81-232.66h69.46l63.81,232.66h-41.21l-13.96-53.18h-86.75l-13.96,53.18h-41.21ZM2235.2,499.04h68.13l-31.24-117.99h-5.65l-31.24,117.99Z"/>
    <path class="cls-1" d="M1166.99,917.43c-28.37,0-50.97-8.03-67.8-24.1-16.84-16.06-25.26-39.16-25.26-69.3v-55.17c0-30.13,8.42-53.23,25.26-69.3,16.84-16.06,39.44-24.1,67.8-24.1s50.24,7.76,65.64,23.27c15.4,15.51,23.1,36.78,23.1,63.81v1.99h-39.22v-2.99c0-14.62-4.05-26.64-12.13-36.06-8.09-9.41-20.55-14.12-37.39-14.12s-29.31,5.04-38.72,15.12c-9.42,10.09-14.13,23.99-14.13,41.71v56.5c0,17.51,4.71,31.36,14.13,41.55,9.42,10.19,22.32,15.29,38.72,15.29s29.3-4.71,37.39-14.13c8.09-9.41,12.13-21.44,12.13-36.06v-5.65h39.22v4.65c0,27.04-7.7,48.31-23.1,63.81-15.4,15.51-37.28,23.27-65.64,23.27Z"/>
    <path class="cls-1" d="M1382.36,917.43c-28.81,0-51.8-8.03-68.97-24.1-17.17-16.06-25.76-39.16-25.76-69.3v-55.17c0-30.13,8.58-53.23,25.76-69.3,17.17-16.06,40.16-24.1,68.97-24.1s52.07,8.03,69.13,24.1c17.06,16.07,25.59,39.17,25.59,69.3v55.17c0,30.14-8.53,53.24-25.59,69.3-17.06,16.07-40.11,24.1-69.13,24.1ZM1382.36,881.54c17.28,0,30.74-5.04,40.38-15.12,9.64-10.08,14.46-23.76,14.46-41.05v-57.83c0-17.28-4.82-30.96-14.46-41.05-9.64-10.08-23.1-15.12-40.38-15.12s-30.41,5.04-40.05,15.12c-9.64,10.09-14.46,23.76-14.46,41.05v57.83c0,17.28,4.82,30.97,14.46,41.05,9.64,10.09,22.99,15.12,40.05,15.12Z"/>
    <path class="cls-1" d="M1517.3,912.78v-232.66h74.78l45.2,205.73h5.65l45.53-205.73h74.45v232.66h-38.55v-203.74h-5.65l-45.2,203.74h-66.47l-45.2-203.74h-5.65v203.74h-38.89Z"/>
    <path class="cls-1" d="M1809.11,912.78v-232.66h94.06c14.62,0,27.47,2.88,38.55,8.64,11.08,5.77,19.83,13.91,26.26,24.43,6.42,10.53,9.64,22.99,9.64,37.39v4.65c0,14.18-3.27,26.59-9.8,37.22-6.54,10.63-15.4,18.84-26.59,24.59-11.19,5.77-23.88,8.64-38.06,8.64h-53.84v87.08h-40.22ZM1849.33,789.47h49.85c11.52,0,20.77-3.1,27.75-9.3,6.98-6.2,10.47-14.73,10.47-25.59v-3.32c0-10.86-3.44-19.39-10.3-25.59-6.87-6.2-16.18-9.3-27.92-9.3h-49.85v73.12Z"/>
    <path class="cls-1" d="M1974.97,912.78l63.81-232.66h69.46l63.81,232.66h-41.21l-13.96-53.18h-86.75l-13.96,53.18h-41.21ZM2039.44,823.04h68.13l-31.24-117.99h-5.65l-31.24,117.99Z"/>
    <path class="cls-1" d="M2201.64,912.78v-232.66h76.44l54.84,205.73h5.32v-205.73h39.55v232.66h-76.11l-54.84-205.73h-5.65v205.73h-39.55Z"/>
    <path class="cls-1" d="M2483.82,912.78v-82.09l-80.1-150.56h44.87l52.51,102.7h5.65l52.51-102.7h44.54l-80.1,150.56v82.09h-39.88Z"/>
  </g>
</svg>